<svg width="608" height="269" viewBox="0 0 608 269" fill="none" xmlns="http://www.w3.org/2000/svg">
<g clip-path="url(#clip0_111_115)">
<path fill-rule="evenodd" clip-rule="evenodd" d="M470.789 37.6317C469.157 21.8405 475.49 8.60015 487.952 1.75177C489.664 0.810911 494.564 0.0237594 498.842 0.000470831C513.276 -0.0756051 522.051 9.07213 521.913 24.0529C521.872 28.3442 520.636 34.1788 519.165 37.0184C516.546 42.072 516.564 42.2335 520.018 44.6478C539.834 58.5 559.344 78.5776 563.455 89.343C571.418 110.228 566.296 133.129 549.659 150.99C540.878 160.419 532.771 165.808 512.567 174.728H528.848C529.916 174.728 530.942 174.907 531.897 175.236C532.853 174.907 533.879 174.728 534.947 174.728H595.975C601.129 174.728 605.304 178.898 605.304 184.043V200.736C605.304 202.304 604.912 203.847 604.153 205.221L572.79 262.213C571.154 265.192 568.017 267.044 564.611 267.044H542.132C538.849 267.044 535.809 265.322 534.124 262.511C532.439 259.699 532.357 256.21 533.91 253.323L557.111 210.183H534.947C534.733 210.183 534.521 210.175 534.31 210.161L505.667 262.213C504.027 265.192 500.891 267.044 497.486 267.044H475.009C471.726 267.044 468.685 265.322 466.999 262.511C465.314 259.699 465.232 256.21 466.785 253.323L489.985 210.183H467.822C467.608 210.183 467.396 210.175 467.186 210.161L438.542 262.213C436.903 265.192 433.767 267.044 430.361 267.044H407.885C404.601 267.044 401.56 265.322 399.875 262.511C398.189 259.699 398.108 256.21 399.66 253.323L417.454 220.235C414.639 221.126 410.903 222.751 406.112 225.155C397.067 229.694 388.643 233.458 380.612 236.51V257.728C380.612 262.873 376.433 267.044 371.279 267.044H349.586C344.431 267.044 340.252 262.873 340.252 257.728V246.386C336.769 246.727 333.283 246.933 329.77 247.011C328.28 250.068 326.439 252.937 324.224 255.597L324.179 255.652C316.48 264.753 305.858 269 293.524 269C282.923 269 273.599 265.881 266.361 259.232C265.641 263.661 261.79 267.044 257.148 267.044H238.461C233.306 267.044 229.127 262.873 229.127 257.728V256.357C228.428 256.523 227.703 256.61 226.962 256.61H209.712C208.971 256.61 208.245 256.523 207.547 256.357V257.728C207.547 262.873 203.368 267.044 198.213 267.044H179.396C178.613 267.044 177.853 266.948 177.128 266.767C176.402 266.948 175.642 267.044 174.86 267.044H153.429C152.616 267.044 151.826 266.94 151.074 266.745C150.321 266.94 149.532 267.044 148.718 267.044H85.2099C84.498 267.044 83.8045 266.964 83.1384 266.814C82.4685 266.965 81.7771 267.044 81.0755 267.044H61.4736C57.5781 267.044 54.0921 264.629 52.7294 260.987L51.3363 257.262H39.2037L37.8107 260.987C36.4481 264.629 32.962 267.044 29.0662 267.044H9.33409C6.28521 267.044 3.42853 265.558 1.68243 263.063C-0.0636764 260.569 -0.479086 257.381 0.56975 254.524L27.6197 180.838C28.9671 177.168 32.4673 174.728 36.3841 174.728H53.764C57.6701 174.728 61.1632 177.155 62.518 180.812L80.8898 230.378L99.691 211.878H85.2099C80.0548 211.878 75.8757 207.707 75.8757 202.562V184.043C75.8757 178.898 80.0548 174.728 85.2099 174.728H148.718C149.532 174.728 150.321 174.832 151.074 175.027C151.826 174.832 152.616 174.728 153.429 174.728H174.86C175.642 174.728 176.402 174.824 177.128 175.005C177.853 174.824 178.613 174.728 179.396 174.728H184.559C180.396 171.139 176.433 167.639 172.793 164.321C144.745 138.763 133.459 130.193 117.709 122.502C98.7645 113.25 89.8285 111.318 63.3821 110.755C40.5638 110.27 40.1002 110.191 35.7692 106.049C29.3225 99.8851 29.5994 91.4471 36.4724 84.5876C42.3575 78.7142 53.6765 75.6493 81.9896 72.2647C92.2616 71.037 101.817 68.9237 106.036 66.9487C114.789 62.8502 118.102 62.8346 137.588 66.797C162.094 71.7821 196.006 83.7198 226.6 98.1307C242.001 105.387 258.653 112.812 263.606 114.633C274.154 118.511 289.247 119.01 295.673 115.694C302.593 112.122 309.262 103.471 310.354 96.6512C310.9 93.2478 312.654 88.7872 314.249 86.7364C315.847 84.6871 318.05 80.2158 319.145 76.8C322.739 65.586 331.343 48.995 337.665 41.0908C351.159 24.2175 351.819 23.5902 356.837 22.8559C364.971 21.6635 370.946 24.2656 381.064 33.404C392.813 44.0143 399.601 56.8402 401.083 71.2199C402.254 82.5927 405.774 86.9397 419.419 93.8579C433.507 101.001 446.735 97.9273 458.922 84.6823C471.077 71.4717 473.353 62.4462 470.789 37.6317ZM224.327 206.983L218.209 226.81L218.212 226.819L224.331 206.986C224.33 206.985 224.328 206.984 224.327 206.983ZM238.461 217.492V257.728H257.148V257.727H238.467V217.496C238.465 217.495 238.463 217.494 238.461 217.492ZM262.382 232.29C263.15 236.644 264.517 240.628 266.482 244.242C267.463 246.048 268.593 247.761 269.872 249.382C275.448 256.25 283.332 259.685 293.524 259.685C295.629 259.685 297.638 259.537 299.55 259.241C297.639 259.536 295.632 259.683 293.53 259.683C283.337 259.683 275.453 256.249 269.878 249.381C266.038 244.515 263.541 238.819 262.388 232.293C262.386 232.292 262.384 232.291 262.382 232.29ZM349.586 245.147V257.728H371.279V257.727H349.592V245.147C349.59 245.147 349.588 245.147 349.586 245.147ZM429.357 217.8L407.885 257.728H430.361L430.361 257.727H407.89L429.364 217.797C429.362 217.798 429.359 217.799 429.357 217.8ZM467.822 194.542V200.867H505.588L475.009 257.728H497.486L497.486 257.727H475.015L505.593 200.866H467.827V194.539C467.826 194.54 467.824 194.541 467.822 194.542ZM530.077 98.0704C527.638 93.4436 515.95 81.8771 507.252 75.4787C500.656 70.627 499.812 70.4904 498.626 74.0831C491.506 95.6607 470.93 117.881 452.172 124.254C448.75 125.417 439.999 126.37 432.727 126.37C418.299 126.372 411.086 124 397.325 114.732C390.667 110.247 389.975 110.082 388.167 112.551C385.537 116.141 386.988 122.97 392.7 133.86C398.413 144.754 407.934 153.8 417.542 157.461C424.533 160.127 425.215 160.106 442.34 156.726C508.646 143.641 542.261 121.168 530.077 98.0704ZM148.718 257.728V257.727H85.2152V239.208L122.458 202.561H85.2152V184.043H85.2099V202.562H122.452L85.2099 239.209V257.728H148.718ZM144.095 220.155L134.164 229.894H144.095V220.155ZM153.429 257.728H174.86V257.727H153.435V184.043H153.429V257.728ZM179.401 257.727H198.213V257.728H179.396V184.043H179.401V257.727ZM209.712 247.295L198.218 210.666V210.647L209.718 247.294H226.962L226.962 247.295H209.712ZM572.715 200.867L542.132 257.728H564.611V257.727H542.137L572.72 200.866H534.952V184.043H534.947V200.867H572.715ZM36.3841 184.043H36.3893L9.33969 257.727H29.0665L29.0662 257.728H9.33409L36.3841 184.043ZM57.8149 247.947H32.7304L32.7307 247.946H57.8208L61.4796 257.727H81.0749L81.0755 257.728H61.4736L57.8149 247.947ZM45.2757 214.299L45.2727 214.307L51.4115 230.862H51.4174L45.2757 214.299Z" fill="url(#paint0_linear_111_115)"/>
<path d="M58.968 247.512L58.6656 246.704H57.8021H32.7125H31.8492L31.5468 247.512L28.1903 256.485H11.104L37.2403 185.289H52.8853L79.2742 256.485H62.3244L58.968 247.512ZM46.4243 213.868L45.2574 210.721L44.0905 213.868L37.9487 230.431L37.3268 232.108H39.1156H51.3992H53.188L52.5661 230.431L46.4243 213.868ZM111.332 240.455H147.461V256.485H86.4416V239.732L123.313 203.451L125.479 201.319H122.44H86.4416V185.289H147.461V202.041L110.461 238.322L108.286 240.455H111.332ZM237.261 210.018L226.033 246.052H210.613L199.388 210.277L196.956 210.649V256.485H180.627V185.289H204.205L217.003 227.184L218.188 231.061L219.383 227.188L232.31 185.289H255.891V256.485H239.693V210.388L237.261 210.018ZM349.574 201.319H330.694V185.289H390.146V201.319H371.266H370.021V202.563V256.485H350.818V202.563V201.319H349.574ZM173.603 256.485H154.661V185.289H173.603V256.485ZM293.512 258.441C283.634 258.441 276.133 255.132 270.831 248.606C265.548 241.906 262.871 233.543 262.871 223.43V185.289H282.074V220.407C281.813 227.246 282.535 232.581 284.398 236.252C285.341 238.111 286.591 239.57 288.172 240.559C289.755 241.549 291.595 242.02 293.643 242.02C295.671 242.02 297.492 241.547 299.055 240.554C300.616 239.562 301.843 238.1 302.762 236.241C304.577 232.57 305.254 227.238 304.949 220.402V185.289H324.152V223.43C324.152 233.99 321.426 242.423 316.079 248.844C310.689 255.215 303.22 258.441 293.512 258.441Z" fill="url(#paint1_linear_111_115)"/>
<path d="M58.968 247.512L58.6656 246.704H57.8021H32.7125H31.8492L31.5468 247.512L28.1903 256.485H11.104L37.2403 185.289H52.8853L79.2742 256.485H62.3244L58.968 247.512ZM46.4243 213.868L45.2574 210.721L44.0905 213.868L37.9487 230.431L37.3268 232.108H39.1156H51.3992H53.188L52.5661 230.431L46.4243 213.868ZM111.332 240.455H147.461V256.485H86.4416V239.732L123.313 203.451L125.479 201.319H122.44H86.4416V185.289H147.461V202.041L110.461 238.322L108.286 240.455H111.332ZM237.261 210.018L226.033 246.052H210.613L199.388 210.277L196.956 210.649V256.485H180.627V185.289H204.205L217.003 227.184L218.188 231.061L219.383 227.188L232.31 185.289H255.891V256.485H239.693V210.388L237.261 210.018ZM349.574 201.319H330.694V185.289H390.146V201.319H371.266H370.021V202.563V256.485H350.818V202.563V201.319H349.574ZM173.603 256.485H154.661V185.289H173.603V256.485ZM293.512 258.441C283.634 258.441 276.133 255.132 270.831 248.606C265.548 241.906 262.871 233.543 262.871 223.43V185.289H282.074V220.407C281.813 227.246 282.535 232.581 284.398 236.252C285.341 238.111 286.591 239.57 288.172 240.559C289.755 241.549 291.595 242.02 293.643 242.02C295.671 242.02 297.492 241.547 299.055 240.554C300.616 239.562 301.843 238.1 302.762 236.241C304.577 232.57 305.254 227.238 304.949 220.402V185.289H324.152V223.43C324.152 233.99 321.426 242.423 316.079 248.844C310.689 255.215 303.22 258.441 293.512 258.441Z" fill="url(#paint2_radial_111_115)" fill-opacity="0.59"/>
<path d="M58.968 247.512L58.6656 246.704H57.8021H32.7125H31.8492L31.5468 247.512L28.1903 256.485H11.104L37.2403 185.289H52.8853L79.2742 256.485H62.3244L58.968 247.512ZM46.4243 213.868L45.2574 210.721L44.0905 213.868L37.9487 230.431L37.3268 232.108H39.1156H51.3992H53.188L52.5661 230.431L46.4243 213.868ZM111.332 240.455H147.461V256.485H86.4416V239.732L123.313 203.451L125.479 201.319H122.44H86.4416V185.289H147.461V202.041L110.461 238.322L108.286 240.455H111.332ZM237.261 210.018L226.033 246.052H210.613L199.388 210.277L196.956 210.649V256.485H180.627V185.289H204.205L217.003 227.184L218.188 231.061L219.383 227.188L232.31 185.289H255.891V256.485H239.693V210.388L237.261 210.018ZM349.574 201.319H330.694V185.289H390.146V201.319H371.266H370.021V202.563V256.485H350.818V202.563V201.319H349.574ZM173.603 256.485H154.661V185.289H173.603V256.485ZM293.512 258.441C283.634 258.441 276.133 255.132 270.831 248.606C265.548 241.906 262.871 233.543 262.871 223.43V185.289H282.074V220.407C281.813 227.246 282.535 232.581 284.398 236.252C285.341 238.111 286.591 239.57 288.172 240.559C289.755 241.549 291.595 242.02 293.643 242.02C295.671 242.02 297.492 241.547 299.055 240.554C300.616 239.562 301.843 238.1 302.762 236.241C304.577 232.57 305.254 227.238 304.949 220.402V185.289H324.152V223.43C324.152 233.99 321.426 242.423 316.079 248.844C310.689 255.215 303.22 258.441 293.512 258.441Z" stroke="url(#paint3_linear_111_115)" stroke-width="0.462609"/>
<path d="M400.682 184.044H461.707V200.737L430.345 257.729H407.868L438.447 200.868H400.682V184.044Z" fill="white"/>
<path d="M467.806 184.044H528.832V200.737L497.469 257.729H474.993L505.571 200.868H467.806V184.044Z" fill="white"/>
<path d="M534.931 184.044H595.958V200.737L564.595 257.729H542.115L572.698 200.868H534.931V184.044Z" fill="white"/>
<path fill-rule="evenodd" clip-rule="evenodd" d="M505.951 14.6675C510.438 18.4868 510.18 27.9963 505.364 36.1443C499.929 45.3369 500.545 46.5195 517.418 59.2527C539.425 75.8624 548.749 86.0209 552.247 97.1903C554.587 104.664 554.77 108.45 553.215 117.428C552.118 123.787 551.381 126.213 549.368 130.11C545.957 136.706 541.583 142.348 536.313 146.956C528.183 154.067 521.55 157.475 493.961 168.722C488.652 170.887 483.919 172.863 479.612 174.729H467.822C466.754 174.729 465.728 174.908 464.773 175.237C463.817 174.908 462.791 174.729 461.723 174.729H400.697C399.006 174.729 397.419 175.178 396.05 175.964C394.682 175.178 393.094 174.729 391.403 174.729H329.462C328.766 174.729 328.088 174.805 327.436 174.949C326.783 174.805 326.105 174.729 325.41 174.729H303.717C298.562 174.729 294.383 178.9 294.383 184.044V220.43C294.383 220.57 294.387 220.709 294.392 220.848C294.61 225.681 294.209 228.676 293.728 230.375C293.617 230.345 293.506 230.316 293.394 230.287C292.898 228.591 292.473 225.607 292.659 220.788C292.66 220.748 292.661 220.708 292.663 220.667C292.665 220.588 292.666 220.51 292.666 220.43V184.044C292.666 178.9 288.487 174.729 283.332 174.729H261.64C260.865 174.729 260.113 174.823 259.394 175C258.674 174.823 257.922 174.729 257.148 174.729H231.405C227.308 174.729 223.69 177.395 222.484 181.303L220.316 188.327C218.423 186.904 216.649 185.561 214.967 184.273L214.067 181.328C212.869 177.407 209.246 174.729 205.139 174.729H202.941C196.849 169.674 191.075 164.494 183.253 157.214C161.16 136.652 155.296 131.561 145.561 124.488C126.887 110.92 107.824 102.726 86.1449 98.949C72.5295 96.5764 63.9706 96.4064 48.4654 98.205C43.5279 98.7779 42.0604 96.5883 45.2446 93.3985C48.5778 90.0553 76.3851 84.8136 92.17 84.5532C100.055 84.4225 100.413 84.3407 104.661 81.7056C107.067 80.2137 111.014 78.4017 113.436 77.677C117.589 76.4337 118.301 76.4412 126.23 77.818C150.766 82.0768 183.593 92.4112 206.114 102.966C209.881 104.73 218.134 108.663 224.45 111.705C250.07 124.039 262.899 129.195 271.835 130.752C279.121 132.021 289.548 131.57 296.008 129.703C305.664 126.914 314.336 118.927 321.589 106.14C323.965 101.954 324.177 101.281 323.339 100.6C321.403 99.0297 323.609 93.7788 327.018 91.8442C327.577 91.5257 328.854 88.5785 329.853 85.2946C335.663 66.1692 343.909 50.9801 351.654 45.1368C353.486 43.754 354.224 42.629 354.559 40.7126C354.832 39.1493 355.388 37.9137 356.193 37.0312C357.421 35.6879 359.226 35.1649 361.48 35.556C363.534 35.9123 364.801 36.5537 365.485 37.5786C366.037 38.4019 367.439 39.4602 368.596 39.9272C376.462 43.0899 386.061 58.1713 387.993 70.3979C388.905 76.1717 387.978 83.1124 386.334 82.8273C386.034 82.7746 385.833 82.6745 385.73 82.5169C385.575 82.2785 385.645 81.9057 385.927 81.3596C387.586 78.1758 384.949 66.0116 380.929 58.2972C377.043 50.8437 371.422 43.8056 367.918 42.0043C366.618 41.3357 366.42 41.4873 366.083 43.4144C365.825 44.9017 366.311 46.5878 367.657 48.8393C370.899 54.2826 373.94 67.9419 373.971 77.2176C373.977 79.871 375.721 81.9192 379.544 83.7693C380.959 84.4542 381.786 84.4774 382.673 83.8538C384.323 82.6955 385.192 83.2674 393.068 90.6751C402.976 100.001 411.675 105.746 421.118 109.208C429.841 112.404 443.326 111.081 452.918 106.089C461.751 101.491 471.306 91.7274 478.025 80.4337C481.409 74.7433 484.484 65.8631 484.891 60.6047L485.584 51.5245C485.858 47.9296 485.581 46.4119 484.162 43.6903C481.923 39.3965 481.637 36.3338 482.832 29.4579C484.363 20.6307 488.443 14.9814 494.766 12.933C498.245 11.8065 503.554 12.6298 505.951 14.6675ZM333.759 234.691C335.927 234.553 338.09 234.353 340.252 234.091V211.879H334.743V223.43C334.743 227.331 334.424 231.094 333.759 234.691ZM349.592 232.582C349.59 232.582 349.588 232.582 349.586 232.583V202.564H329.462V184.044H329.468V202.562H349.592V232.582ZM380.613 222.816C389.139 219.311 398.092 215.083 407.732 210.183H400.697C399.573 210.183 398.494 209.985 397.495 209.621C395.861 211.028 393.731 211.879 391.403 211.879H380.613V222.816ZM432.761 200.867L432.76 200.868H400.697V184.044H400.703V200.867H432.761ZM228.236 194.33C228.235 194.329 228.233 194.328 228.232 194.327L231.405 184.044H231.41L228.236 194.33ZM261.645 218.173C261.643 218.171 261.641 218.17 261.64 218.169V184.044H261.645V218.173ZM302.83 232.481C302.828 232.48 302.826 232.48 302.825 232.48C303.64 229.349 303.937 225.333 303.717 220.43V184.044H303.723V220.429C303.943 225.333 303.646 229.35 302.83 232.481ZM491.688 29.4427C488.948 32.1916 489.726 35.4908 493.098 35.4059C494.21 35.3786 495.186 35.7319 495.389 36.2398C495.644 36.8766 496.164 36.8569 497.249 36.1731C500.475 34.1399 499.242 29.1881 495.341 28.5103C493.718 28.2298 492.618 28.5103 491.688 29.4427ZM494.423 54.5081C492.493 58.408 490.312 61.607 489.464 61.7721C489.091 61.8453 488.753 62.2456 488.468 62.9396C488.252 63.469 488.067 64.1679 487.918 65.02C487.626 66.6954 486.939 68.6408 486.389 69.3413C485.839 70.0417 485.204 71.7321 484.977 73.0981C484.454 76.2443 479.683 85.2338 477.071 88.0007C475.973 89.159 474.999 90.5767 474.898 91.1469C474.798 91.7199 473.373 93.5152 471.732 95.1362C471.203 95.6591 470.699 96.1837 470.258 96.6674C469.329 97.6847 468.672 98.5202 468.63 98.7779C468.375 100.24 451.663 111.773 450.174 111.514C449.785 111.446 448.187 111.928 446.625 112.584C445.064 113.24 442.517 113.777 440.965 113.777C440.199 113.777 439.406 113.832 438.744 113.92C438.06 114.011 437.51 114.137 437.264 114.276C435.66 115.191 426.472 114.343 420.334 112.716C419.04 112.373 416.837 111.432 414.479 110.272C411.805 108.954 408.931 107.353 406.959 106.02C405.531 105.056 403.906 104.186 403.343 104.089C402.781 103.992 401.128 102.759 399.664 101.351C398.202 99.9422 396.665 98.7247 396.249 98.6461C395.832 98.5654 394.326 97.1919 392.9 95.594C392.463 95.1039 392.016 94.6359 391.594 94.2189C390.633 93.2726 389.795 92.592 389.479 92.5344C389.023 92.451 387.671 90.9344 386.474 89.1639C384.463 86.1877 384.141 85.9751 382.202 86.3496C381.448 86.4954 380.78 86.5314 380.042 86.4222C378.893 86.2511 377.581 85.7266 375.539 84.7119C375.147 84.5166 374.877 84.4166 374.691 84.4784C374.354 84.5909 374.302 85.2381 374.296 86.8182C374.293 87.5337 374.278 88.6694 374.253 89.9413L374.163 94.2248C374.071 97.5465 374.424 99.5085 375.372 100.965C376.104 102.097 376.72 103.872 376.739 104.911C376.775 107.119 375.36 109.795 374.257 109.604C372.318 109.267 373.615 123.196 376.195 130.361C380.358 141.936 390.403 155.745 399.643 162.594C402.265 164.539 405.789 166.597 409.317 168.325C412.753 170.01 416.196 171.382 418.818 172.037C423.217 173.136 424.309 173.095 434.338 171.453C456.118 167.888 480.714 161.526 496.769 155.307C520.137 146.253 536.053 134.541 541.857 122.127C544.892 115.629 545.909 105.793 544.192 99.4919C540.754 86.8741 526.569 72.2007 505.498 59.4706C496.577 54.0809 494.985 53.3681 494.423 54.5081ZM391.403 202.564H371.284V202.562H391.403V202.564Z" fill="url(#paint4_linear_111_115)"/>
<path fill-rule="evenodd" clip-rule="evenodd" d="M506.155 14.7536C510.643 18.5729 510.385 28.0824 505.568 36.2303C500.133 45.423 500.75 46.6056 517.622 59.3387C539.629 75.9484 548.954 86.1069 552.451 97.2764C554.792 104.75 554.975 108.536 553.42 117.514C552.322 123.873 551.585 126.299 549.573 130.196C546.161 136.792 541.787 142.434 536.518 147.042C528.387 154.153 521.754 157.561 494.165 168.808C488.856 170.973 484.123 172.949 479.816 174.815H468.026C466.959 174.815 465.933 174.994 464.977 175.323C464.022 174.994 462.996 174.815 461.927 174.815H400.902C399.21 174.815 397.623 175.264 396.254 176.05C394.886 175.264 393.299 174.815 391.607 174.815H329.667C328.971 174.815 328.292 174.891 327.64 175.035C326.988 174.891 326.31 174.815 325.614 174.815H303.922C298.767 174.815 294.588 178.986 294.588 184.131V220.517C294.588 220.656 294.591 220.795 294.597 220.934C294.814 225.767 294.413 228.762 293.932 230.461C293.821 230.431 293.71 230.402 293.599 230.373C293.102 228.677 292.678 225.693 292.863 220.874C292.865 220.834 292.866 220.794 292.867 220.753C292.869 220.674 292.87 220.596 292.87 220.517V184.131C292.87 178.986 288.691 174.815 283.536 174.815H261.844C261.07 174.815 260.317 174.909 259.598 175.086C258.879 174.909 258.126 174.815 257.352 174.815H231.609C227.512 174.815 223.894 177.481 222.688 181.389L220.521 188.414C218.627 186.991 216.853 185.647 215.171 184.359L214.271 181.414C213.074 177.493 209.45 174.815 205.343 174.815H203.146C197.053 169.761 191.279 164.58 183.457 157.3C161.365 136.738 155.5 131.647 145.765 124.574C127.091 111.006 108.028 102.812 86.3492 99.0351C72.7338 96.6625 64.175 96.4925 48.6697 98.291C43.7323 98.864 42.2647 96.6743 45.449 93.4845C48.7821 90.1414 76.5895 84.8997 92.3744 84.6393C100.259 84.5085 100.617 84.4268 104.865 81.7916C107.271 80.2998 111.219 78.4878 113.64 77.7631C117.794 76.5198 118.505 76.5273 126.435 77.904C150.97 82.1629 183.797 92.4973 206.318 103.052C210.086 104.816 218.338 108.749 224.655 111.791C250.275 124.125 263.103 129.281 272.039 130.838C279.325 132.108 289.753 131.656 296.213 129.789C305.868 127 314.54 119.013 321.793 106.227C324.169 102.04 324.382 101.367 323.543 100.686C321.608 99.1158 323.814 93.8649 327.223 91.9302C327.782 91.6117 329.058 88.6646 330.058 85.3806C335.867 66.2553 344.113 51.0662 351.858 45.2229C353.69 43.8401 354.429 42.7151 354.763 40.7986C355.036 39.2354 355.592 37.9997 356.398 37.1173C357.625 35.774 359.43 35.2509 361.684 35.642C363.738 35.9984 365.005 36.6397 365.689 37.6647C366.242 38.488 367.643 39.5463 368.8 40.0132C376.667 43.176 386.265 58.2574 388.198 70.484C389.109 76.2578 388.182 83.1985 386.539 82.9134C386.238 82.8606 386.037 82.7606 385.934 82.6029C385.779 82.3646 385.849 81.9918 386.131 81.4457C387.79 78.2618 385.153 66.0976 381.133 58.3833C377.247 50.9298 371.626 43.8916 368.123 42.0904C366.822 41.4218 366.625 41.5734 366.287 43.5005C366.029 44.9878 366.516 46.6738 367.861 48.9254C371.104 54.3687 374.145 68.028 374.175 77.3036C374.181 79.9571 375.926 82.0052 379.748 83.8554C381.164 84.5403 381.99 84.5634 382.877 83.9399C384.527 82.7816 385.396 83.3534 393.272 90.7612C403.18 100.087 411.879 105.832 421.322 109.294C430.046 112.49 443.53 111.168 453.122 106.175C461.955 101.577 471.511 91.8135 478.229 80.5198C481.614 74.8294 484.689 65.9492 485.096 60.6907L485.789 51.6105C486.062 48.0156 485.785 46.4979 484.366 43.7764C482.127 39.4826 481.841 36.4199 483.036 29.544C484.567 20.7167 488.648 15.0675 494.97 13.0191C498.449 11.8926 503.758 12.7159 506.155 14.7536ZM333.963 234.777C336.132 234.639 338.295 234.439 340.457 234.177V211.965H334.948V223.516C334.948 227.417 334.628 231.18 333.963 234.777ZM349.796 232.668C349.795 232.668 349.792 232.668 349.791 232.669V202.65H329.667V184.131H329.672V202.648H349.796V232.668ZM380.817 222.902C389.344 219.397 398.297 215.169 407.936 210.269H400.902C399.777 210.269 398.698 210.071 397.7 209.707C396.065 211.114 393.935 211.965 391.607 211.965H380.817V222.902ZM432.966 200.953L432.965 200.954H400.902V184.131H400.907V200.953H432.966ZM228.44 194.417C228.439 194.415 228.438 194.414 228.436 194.413L231.609 184.131H231.614L228.44 194.417ZM261.849 218.259C261.848 218.257 261.845 218.256 261.844 218.255V184.131H261.849V218.259ZM303.035 232.567C303.032 232.566 303.031 232.566 303.029 232.566C303.844 229.435 304.142 225.419 303.922 220.517V184.131H303.927V220.515C304.148 225.419 303.85 229.436 303.035 232.567ZM491.893 29.5288C489.152 32.2777 489.93 35.5769 493.302 35.4919C494.415 35.4647 495.39 35.8179 495.593 36.3258C495.849 36.9627 496.368 36.9429 497.453 36.2591C500.68 34.226 499.446 29.2741 495.545 28.5963C493.922 28.3159 492.822 28.5963 491.893 29.5288ZM494.627 54.5941C492.698 58.4941 490.516 61.693 489.668 61.8582C489.295 61.9314 488.958 62.3316 488.672 63.0257C488.456 63.5551 488.271 64.2539 488.122 65.1061C487.83 66.7814 487.143 68.7268 486.593 69.4273C486.044 70.1278 485.409 71.8182 485.181 73.1842C484.658 76.3304 479.888 85.3198 477.275 88.0868C476.178 89.2451 475.203 90.6627 475.102 91.233C475.002 91.806 473.577 93.6013 471.936 95.2223C471.407 95.7452 470.903 96.2698 470.463 96.7534C469.533 97.7708 468.876 98.6063 468.834 98.864C468.579 100.326 451.868 111.859 450.379 111.6C449.99 111.532 448.392 112.014 446.83 112.67C445.268 113.326 442.722 113.863 441.169 113.863C440.404 113.863 439.611 113.918 438.948 114.006C438.264 114.097 437.715 114.223 437.469 114.362C435.864 115.277 426.676 114.429 420.538 112.802C419.244 112.459 417.041 111.518 414.683 110.358C412.01 109.04 409.135 107.439 407.163 106.107C405.735 105.142 404.11 104.272 403.548 104.175C402.985 104.078 401.333 102.845 399.868 101.437C398.407 100.028 396.869 98.8107 396.453 98.7322C396.036 98.6515 394.53 97.278 393.105 95.6801C392.667 95.19 392.221 94.7219 391.798 94.305C390.838 93.3586 390 92.6781 389.683 92.6205C389.227 92.5371 387.875 91.0205 386.679 89.2499C384.667 86.2737 384.345 86.0612 382.406 86.4357C381.653 86.5815 380.984 86.6175 380.246 86.5083C379.097 86.3372 377.785 85.8126 375.743 84.798C375.351 84.6027 375.081 84.5026 374.895 84.5645C374.558 84.6769 374.506 85.3241 374.5 86.9042C374.497 87.6198 374.482 88.7555 374.458 90.0273L374.367 94.3109C374.275 97.6325 374.628 99.5946 375.576 101.051C376.308 102.183 376.925 103.958 376.943 104.997C376.98 107.205 375.564 109.881 374.461 109.69C372.522 109.353 373.82 123.282 376.4 130.447C380.562 142.022 390.607 155.831 399.847 162.68C402.469 164.625 405.994 166.683 409.521 168.411C412.958 170.096 416.4 171.468 419.022 172.123C423.422 173.222 424.513 173.181 434.543 171.539C456.322 167.974 480.918 161.613 496.973 155.393C520.341 146.339 536.257 134.628 542.061 122.213C545.096 115.715 546.113 105.88 544.397 99.5779C540.958 86.9602 526.774 72.2868 505.702 59.5566C496.782 54.167 495.189 53.4542 494.627 54.5941ZM391.607 202.65H371.488V202.648H391.607V202.65Z" fill="url(#paint5_radial_111_115)" fill-opacity="0.59"/>
</g>
<defs>
<linearGradient id="paint0_linear_111_115" x1="302.653" y1="1.50246e-10" x2="302.653" y2="268.998" gradientUnits="userSpaceOnUse">
<stop stop-color="#6217C2"/>
<stop offset="1" stop-color="#370450"/>
</linearGradient>
<linearGradient id="paint1_linear_111_115" x1="267.007" y1="184.758" x2="267.007" y2="264.716" gradientUnits="userSpaceOnUse">
<stop stop-color="#EEA60A"/>
<stop offset="1" stop-color="#E17603"/>
</linearGradient>
<radialGradient id="paint2_radial_111_115" cx="0" cy="0" r="1" gradientUnits="userSpaceOnUse" gradientTransform="translate(196.114 149.825) rotate(83.8078) scale(122.592 730.621)">
<stop stop-color="#FCE700"/>
<stop offset="0.576235" stop-color="#FBE500" stop-opacity="0.53"/>
<stop offset="0.585788" stop-color="white" stop-opacity="0"/>
</radialGradient>
<linearGradient id="paint3_linear_111_115" x1="209.69" y1="184.044" x2="209.69" y2="259.686" gradientUnits="userSpaceOnUse">
<stop stop-color="#FFCA0D" stop-opacity="0"/>
<stop offset="1" stop-color="#FFF50D"/>
</linearGradient>
<linearGradient id="paint4_linear_111_115" x1="392.643" y1="14.5261" x2="392.643" y2="249.713" gradientUnits="userSpaceOnUse">
<stop stop-color="#EEA60A"/>
<stop offset="1" stop-color="#E17603"/>
</linearGradient>
<radialGradient id="paint5_radial_111_115" cx="0" cy="0" r="1" gradientUnits="userSpaceOnUse" gradientTransform="translate(298.094 -88.1394) rotate(115.724) scale(424.665 509.71)">
<stop stop-color="#FCE700"/>
<stop offset="0.576235" stop-color="#FBE500" stop-opacity="0.53"/>
<stop offset="0.577533" stop-color="white" stop-opacity="0"/>
</radialGradient>
<clipPath id="clip0_111_115">
<rect width="608" height="269" fill="white"/>
</clipPath>
</defs>
</svg>
